#!OML:ASF E:\Steps\Project 1\Capture day 1\Session 2\Subject.ASF
:FULLY-SPECIFIED
:DEGREES
441
root 12.3397 17.1137 8.17173 -156.091 0.608711 176.616
lowerback -30.7227 -2.32549 -7.675
upperback -1.17692 -1.09957 0.189674
thorax 14.8947 -1.30447 3.84524
lowerneck -1.88156 0.140277 0.957263
upperneck 6.26247 0.305844 -0.871213
head 2.29013 0.195327 -0.428867
rclavicle -1.07406e-014 -6.65929e-015
rhumerus -38.7643 -20.4455 -75.0604
rradius 31.0726
rwrist -0.830012
rhand -7.1136 -51.9021
rfingers 7.12502
rthumb 18.7616 278.983
lclavicle -1.07406e-014 -6.65929e-015
lhumerus -31.2955 -1.12352 84.4419
lradius 29.9042
lwrist 3.41906
lhand -22.6768 -13.1891
lfingers 7.12502
lthumb 3.75524 16.7576
rfemur -21.8284 7.11659 18.2765
rtibia 9.26833
rfoot -20.4359 -4.14291
rtoes -18.6229
lfemur -21.8057 -9.35441 -24.1996
ltibia 9.82737
lfoot -8.84442 -4.27273
ltoes -27.3635
442
root 12.3413 17.1147 8.17147 -156.102 0.581833 176.659
lowerback -30.7877 -2.29256 -7.6111
upperback -1.12779 -1.06344 0.181675
thorax 14.9772 -1.28525 3.81605
lowerneck -2.03355 0.157965 1.00879
upperneck 6.34871 0.327323 -0.888816
head 2.3468 0.206373 -0.44305
rclavicle 4.50993e-015 5.2181e-015
rhumerus -38.7598 -20.5236 -74.987
rradius 31.0261
rwrist -0.877401
rhand -7.27421 -51.1145
rfingers 7.12502
rthumb 18.6071 279.755
lclavicle 4.50993e-015 5.2181e-015
lhumerus -31.2525 -1.15433 84.4756
lradius 30.2726
lwrist 3.69446
lhand -22.2447 -12.7638
lfingers 7.12502
lthumb 4.17244 17.1751
rfemur -21.8482 7.10111 18.3402
rtibia 9.31483
rfoot -20.4799 -4.13254
rtoes -18.9396
lfemur -21.8067 -9.33309 -24.144
ltibia 9.8371
lfoot -8.83863 -4.28755
ltoes -27.3785
443
root 12.3427 17.1148 8.17277 -156.037 0.542988 176.64
lowerback -30.9608 -2.28176 -7.57281
upperback -1.06288 -1.03355 0.127499
thorax 15.1256 -1.27274 3.74446
lowerneck -2.14596 0.205963 1.12194
upperneck 6.3244 0.388538 -0.997449
head 2.36096 0.234708 -0.495382
rclavicle 5.11249e-015 -7.7526e-015
rhumerus -38.6466 -20.5558 -75.0257
rradius 30.935
rwrist -1.06707
rhand -7.4577 -50.6675
rfingers 7.12502
rthumb 18.4306 280.186
lclavicle 5.11249e-015 -7.7526e-015
lhumerus -31.1826 -1.29828 84.4914
lradius 30.5224
lwrist 3.72044
lhand -22.3611 -12.9339
lfingers 7.12502
lthumb 4.06007 17.0072
rfemur -21.9387 7.02212 18.3387
rtibia 9.35309
rfoot -20.5261 -4.14998
rtoes -19.2947
lfemur -21.9205 -9.27627 -24.163
ltibia 9.94099
lfoot -8.88698 -4.4785
ltoes -27.3393
444
root 12.3455 17.1136 8.17373 -155.974 0.544983 176.592
lowerback -31.0755 -2.24999 -7.58286
upperback -1.03424 -0.967649 0.0532533
thorax 15.2002 -1.24581 3.69266
lowerneck -2.21049 0.235333 1.35477
upperneck 6.2813 0.430268 -1.26621
head 2.36165 0.252105 -0.619656
rclavicle 6.89534e-015 -7.20594e-015
rhumerus -38.6797 -20.7384 -74.9792
rradius 30.9723
rwrist -0.990095
rhand -7.15495 -51.1288
rfingers 7.12502
rthumb 18.7218 279.752
lclavicle 6.89534e-015 -7.20594e-015
lhumerus -31.0505 -1.39894 84.4863
lradius 30.4864
lwrist 3.46722
lhand -22.6055 -13.5448
lfingers 7.12502
lthumb 3.82402 16.4006
rfemur -22.0311 7.03129 18.277
rtibia 9.40827
rfoot -20.5834 -4.16611
rtoes -19.2389
lfemur -22.0253 -9.28861 -24.2004
ltibia 10.0265
lfoot -8.97013 -4.55143
ltoes -27.4331
445
root 12.3479 17.1108 8.1722 -155.943 0.546722 176.546
lowerback -31.1057 -2.22293 -7.629
upperback -1.06464 -0.917839 0.0267637
thorax 15.1705 -1.22747 3.70767
lowerneck -2.0795 0.253975 1.46876
upperneck 6.17429 0.464942 -1.49905
head 2.30502 0.265956 -0.711845
rclavicle -6.69035e-015 4.57205e-015
rhumerus -38.8876 -20.8349 -74.8111
rradius 31.0393
rwrist -0.801629
rhand -6.81327 -51.6468
rfingers 7.12502
rthumb 19.0504 279.266
lclavicle -6.69035e-015 4.57205e-015
lhumerus -31.0153 -1.52341 84.5511
lradius 30.5063
lwrist 3.61392
lhand -22.3202 -13.7247
lfingers 7.12502
lthumb 4.09957 16.2156
rfemur -22.0839 7.00276 18.2301
rtibia 9.48155
rfoot -20.6026 -4.12782
rtoes -19.2474
lfemur -22.0734 -9.36891 -24.2298
ltibia 10.0524
lfoot -9.01205 -4.48993
ltoes -27.4762
446
root 12.349 17.1088 8.17004 -155.943 0.537699 176.53
lowerback -31.1336 -2.20452 -7.62957
upperback -1.0704 -0.892374 0.0197544
thorax 15.1727 -1.21685 3.71007
lowerneck -1.88626 0.339589 1.30368
upperneck 5.94436 0.576248 -1.39445
head 2.19431 0.319336 -0.646402
rclavicle 2.07481e-015 1.2921e-014
rhumerus -38.9485 -20.8018 -74.7087
rradius 30.9277
rwrist -0.780177
rhand -6.96177 -51.7511
rfingers 7.12502
rthumb 18.9076 279.148
lclavicle 2.07481e-015 1.2921e-014
lhumerus -31.0506 -1.53418 84.5933
lradius 30.6973
lwrist 3.7104
lhand -21.8958 -13.369
lfingers 7.12502
lthumb 4.50937 16.563
rfemur -22.1 6.94062 18.2355
rtibia 9.5285
rfoot -20.6127 -4.09661
rtoes -19.2259
lfemur -22.0979 -9.41084 -24.2451
ltibia 10.1305
lfoot -9.08348 -4.47946
ltoes -27.7161
447
root 12.3494 17.1085 8.16871 -155.965 0.56211 176.502
lowerback -31.0545 -2.17849 -7.65249
upperback -1.11959 -0.862496 -6.20209e-005
thorax 15.0749 -1.20273 3.71412
lowerneck -1.78054 0.368296 1.24115
upperneck 5.86657 0.612452 -1.31506
head 2.14927 0.338144 -0.60936
rclavicle 1.44864e-014 2.5842e-014
rhumerus -39.0292 -20.8186 -74.5919
rradius 30.8065
rwrist -0.678481
rhand -7.01035 -51.7787
rfingers 7.12502
rthumb 18.8609 279.116
lclavicle 1.44864e-014 2.5842e-014
lhumerus -31.2228 -1.46626 84.5925
lradius 30.9087
lwrist 3.55816
lhand -21.6782 -13.1095
lfingers 7.12502
lthumb 4.71954 16.8179
rfemur -22.0682 6.96751 18.2003
rtibia 9.50099
rfoot -20.6444 -4.0947
rtoes -19.1831
lfemur -22.0918 -9.48681 -24.2778
ltibia 10.2071
lfoot -9.14013 -4.4066
ltoes -28.4391
448
root 12.3498 17.1093 8.166 -156.015 0.573942 176.415
lowerback -30.9848 -2.16333 -7.73232
upperback -1.15808 -0.821306 -0.0453891
thorax 14.9916 -1.18723 3.72506
lowerneck -1.7027 0.329404 1.33739
upperneck 5.89183 0.566348 -1.41148
head 2.14406 0.316421 -0.657432
rclavicle -6.59717e-015 -1.58034e-014
rhumerus -39.2048 -20.7807 -74.4963
rradius 30.8382
rwrist -0.644862
rhand -6.86762 -51.4613
rfingers 7.12502
rthumb 18.9981 279.447
lclavicle -6.59717e-015 -1.58034e-014
lhumerus -31.3315 -1.56053 84.6141
lradius 30.9633
lwrist 3.60233
lhand -21.5403 -12.974
lfingers 7.12502
lthumb 4.85263 16.9504
rfemur -21.952 6.99179 18.0946
rtibia 9.42683
rfoot -20.6755 -4.13507
rtoes -19.4004
lfemur -22.0413 -9.63725 -24.3702
ltibia 10.2456
lfoot -9.18327 -4.30084
ltoes -28.9933
449
root 12.3516 17.1091 8.1637 -156.054 0.544096 176.381
lowerback -31.0809 -2.15217 -7.74473
upperback -1.08104 -0.777477 -0.068227
thorax 15.1198 -1.17059 3.72353
lowerneck -1.63126 0.298855 1.39883
upperneck 5.70521 0.524161 -1.53655
head 2.07071 0.291805 -0.707864
rclavicle -7.26806e-016 1.0138e-014
rhumerus -39.2068 -20.8116 -74.4329
rradius 30.8159
rwrist -0.688818
rhand -6.90604 -51.2571
rfingers 7.12502
rthumb 18.9612 279.647
lclavicle -7.26806e-016 1.0138e-014
lhumerus -31.2284 -1.7178 84.6929
lradius 30.9544
lwrist 3.71493
lhand -21.5406 -12.4827
lfingers 7.12502
lthumb 4.85235 17.4418
rfemur -21.8361 6.96995 18.072
rtibia 9.32377
rfoot -20.6614 -4.17572
rtoes -19.4816
lfemur -21.9988 -9.74206 -24.3863
ltibia 10.2609
lfoot -9.19252 -4.2917
ltoes -28.7239
450
root 12.3536 17.1066 8.16276 -156.03 0.530162 176.426
lowerback -31.2885 -2.13187 -7.68321
upperback -0.96944 -0.737928 -0.063211
thorax 15.3405 -1.15448 3.70944
lowerneck -1.62561 0.271086 1.43742
upperneck 5.49347 0.481049 -1.62822
head 2.00078 0.265904 -0.743706
rclavicle 7.70912e-015 8.34896e-015
rhumerus -39.1083 -21.0013 -74.338
rradius 30.7541
rwrist -0.587826
rhand -6.97741 -51.7523
rfingers 7.12502
rthumb 18.8926 279.145
lclavicle 7.70912e-015 8.34896e-015
lhumerus -31.116 -1.79103 84.7704
lradius 31.0006
lwrist 3.67872
lhand -21.6373 -12.2221
lfingers 7.12502
lthumb 4.75895 17.7045
rfemur -21.8361 6.95499 18.1392
rtibia 9.26588
rfoot -20.6658 -4.13514
rtoes -19.2606
lfemur -22.0215 -9.73978 -24.3196
ltibia 10.256
lfoot -9.16693 -4.31998
ltoes -28.5315
